<svg width="20" height="20" viewBox="0 0 24 24" fill="none" xmlns="http://www.w3.org/2000/svg">
  <path fill-rule="evenodd" clip-rule="evenodd" d="M12 2C6.48 2 2 6.58 2 12.25c0 4.52 2.87 8.35 6.85 9.7.5.1.68-.22.68-.49 0-.24-.01-.87-.01-1.7-2.79.62-3.38-1.38-3.38-1.38-.45-1.18-1.1-1.5-1.1-1.5-.9-.64.07-.63.07-.63 1 .07 1.52 1.05 1.52 1.05.89 1.56 2.33 1.11 2.9.85.09-.66.35-1.11.63-1.37-2.23-.25-4.58-1.14-4.58-5.09 0-1.12.39-2.03 1.03-2.75-.11-.26-.45-1.3.1-2.71 0 0 .84-.28 2.75 1.05A9.2 9.2 0 0 1 12 7.17c.85 0 1.7.11 2.5.33 1.9-1.33 2.74-1.05 2.74-1.05.56 1.41.22 2.45.1 2.71.64.72 1.03 1.63 1.03 2.75 0 3.96-2.36 4.83-4.6 5.08.36.32.68.95.68 1.92 0 1.38-.01 2.49-.01 2.83 0 .27.18.6.69.49A10.26 10.26 0 0 0 22 12.25C22 6.58 17.52 2 12 2Z" fill="currentColor"/>
</svg>
