<svg xmlns="http://www.w3.org/2000/svg" viewBox="0 0 64 64"><rect width="64" height="64" rx="4" fill="#f5f4f0"/><path fill="#111110" d="M10 44.98L10 19.02L16.55 19.02L16.55 44.98ZM15.2 44.98L15.2 39.45L29.25 39.45L29.25 44.98ZM15.2 34.43L15.2 29.05L27.94 29.05L27.94 34.43ZM15.2 24.55L15.2 19.02L29.03 19.02L29.03 24.55ZM38.88 35.68L38.88 30.81L44.01 30.81Q44.96 30.81 45.75 30.43Q46.53 30.04 47.01 29.27Q47.48 28.5 47.48 27.37Q47.48 26.23 47.01 25.45Q46.53 24.66 45.75 24.28Q44.96 23.89 44.01 23.89L38.88 23.89L38.88 19.02L45.14 19.02Q47.63 19.02 49.64 20.03Q51.66 21.04 52.83 22.89Q54 24.73 54 27.37Q54 29.93 52.83 31.82Q51.66 33.7 49.64 34.69Q47.63 35.68 45.14 35.68ZM33.68 44.98L33.68 19.02L40.24 19.02L40.24 44.98Z"/></svg>
